Coordinates
version=1
nRows=9
nColumns=36
inDegrees=yes

Units are S.I. units (second, meters, Newtons, ...)
If the header above contains a line with 'inDegrees', this indicates whether rotational values are in degrees (yes) or radians (no).

endheader
time	pelvis_tilt	pelvis_list	pelvis_rotation	pelvis_tx	pelvis_ty	pelvis_tz	hip_flexion_r	hip_adduction_r	hip_rotation_r	knee_angle_r	knee_angle_r_beta	ankle_angle_r	subtalar_angle_r	mtp_angle_r	hip_flexion_l	hip_adduction_l	hip_rotation_l	knee_angle_l	knee_angle_l_beta	ankle_angle_l	subtalar_angle_l	mtp_angle_l	lumbar_extension	lumbar_bending	lumbar_rotation	arm_flex_r	arm_add_r	arm_rot_r	elbow_flex_r	pro_sup_r	arm_flex_l	arm_add_l	arm_rot_l	elbow_flex_l	pro_sup_l
      0.00000000	      5.50423832	     -2.09136202	     -8.01669003	      0.42505644	      0.89668705	     -0.02074541	     -7.27849250	      8.07855521	      0.00481063	      5.29183763	      0.09235999	      4.90419995	    -20.29768879	     -6.49604319	     20.43700010	     -7.15358664	      1.60555796	     26.12860634	      0.45603021	      1.17866388	    -16.59965978	     -6.49604319	     -3.77062904	      2.29302458	     -1.69264173	     29.49025679	      8.08333775	     42.45940880	    126.06811278	    106.45896116	     50.25038854	     23.08076264	     74.38993341	    115.73623529	     99.16260152
      0.01666670	      5.26024195	     -2.55944964	     -8.32633443	      0.42680609	      0.89807097	     -0.02142091	     -7.52655135	      8.49462921	      1.73662691	      4.49047877	      0.07837364	      8.88215016	    -19.64223866	     -6.80808298	     19.98395235	     -8.17636313	      0.42683380	     24.77615937	      0.43242556	      1.89670847	    -13.80104056	     -6.80808298	     -1.58891543	      3.99221891	     -3.14031406	     30.79015166	      9.22029669	     42.96783261	    124.07961200	    103.99872476	     51.43634841	     22.01705927	     70.96266273	    119.13002671	     95.78855629
      0.03333330	      3.81221146	     -2.33255206	     -7.92433135	      0.42866324	      0.89350857	     -0.02204330	     -6.62915427	      8.41193986	      0.31037341	      3.99537459	      0.06973244	     10.37247383	    -18.14384678	     -6.87522385	     21.59589615	     -8.14994136	     -0.01633422	     24.30832012	      0.42426022	      2.41555668	    -12.06581138	     -6.87522385	      1.28900010	      4.05614408	     -3.41991549	     29.51359530	      9.78949540	     43.01792418	    123.99343003	    102.27122406	     51.00364654	     21.52131091	     70.90758945	    120.19187387	     94.49099925
      0.05000000	      3.01421241	     -2.60637810	     -6.87798051	      0.42529032	      0.88712382	     -0.02530730	     -5.93852558	      8.83893043	     -0.88609206	      4.10415426	      0.07163100	     12.34151087	    -16.48252407	     -7.07918713	     23.47423242	     -8.39707852	      0.16567393	     25.44834819	      0.44415747	      3.67844754	    -10.14767743	     -7.07918713	      2.56962079	      4.58595266	     -4.65586267	     29.28064751	     10.17485641	     43.49278868	    123.04806681	    105.18819664	     51.45352356	     21.20277781	     69.66946481	    120.64265702	     96.69133384
      0.06666670	      2.16256355	     -2.77244132	     -6.13207972	      0.42577722	      0.88669857	     -0.02594116	     -5.11978932	      9.18775020	     -1.49945935	      3.87996318	      0.06771813	     12.87254876	    -15.94107138	     -7.19142337	     25.29164148	     -8.63208498	      0.52317754	     26.64621775	      0.46506423	      4.38032051	     -9.46028480	     -7.19142337	      3.80766845	      4.93603559	     -5.22226795	     28.62205394	     10.00850654	     43.68509685	    122.53222696	    105.12152235	     51.24326520	     21.08516300	     69.70467700	    120.18838149	     96.14019572
      0.08333330	      1.66925801	     -2.87490746	     -5.35013510	      0.42610267	      0.88799909	     -0.02628053	     -4.74104994	      9.45483099	     -2.36221067	      3.58407061	      0.06255383	     13.42997478	    -14.99080075	     -7.24885981	     26.49598904	     -8.76920244	      0.92645848	     27.61954849	      0.48205206	      5.34973049	     -9.48364122	     -7.24885981	      4.59373761	      5.04070418	     -5.84850471	     28.20775110	      9.92173513	     43.89194568	    122.01052499	    101.93070187	     51.33474795	     21.02029859	     70.24892261	    119.75676882	     93.50712957
      0.10000000	      1.25223453	     -3.00806220	     -4.75072049	      0.42613271	      0.88788071	     -0.02683067	     -4.22703470	      9.74264850	     -3.38815328	      3.72463803	      0.06500720	     13.63167779	    -14.62000442	     -7.29664333	     27.73542144	     -9.07499727	      1.00122055	     28.99168331	      0.50600033	      6.43126505	     -9.88762461	     -7.29664333	      5.23004048	      5.06775304	     -6.13548489	     27.81453253	      9.86599461	     43.58786582	    121.91765628	    104.52318305	     50.82447239	     21.13411840	     70.41977739	    119.23459821	     94.54962778
      0.11666670	      0.94678575	     -3.07563467	     -4.11631989	      0.42637039	      0.88563761	     -0.02692093	     -3.82702053	      9.91325837	     -4.35897079	      3.82674184	      0.06678924	     13.67489745	    -14.36685913	     -7.31052596	     28.67276615	     -9.42610577	      0.59685112	     30.21940444	      0.52742811	      7.47464856	    -10.72697847	     -7.31052596	      5.62786464	      4.92219845	     -6.72082516	     27.54026661	      9.91795119	     43.25136107	    121.52320340	    103.38641989	     50.45428050	     21.08423734	     70.70835489	    118.75974689	     93.52460840
      0.13333330	      0.45460084	     -3.25376643	     -3.47129439	      0.42639081	      0.88546492	     -0.02767884	     -3.14714011	     10.10794269	     -5.42234181	      3.98953987	      0.06963061	     13.80104885	    -13.88217137	     -7.32621662	     29.67754944	     -9.73526697	      0.50953053	     31.02897776	      0.54155783	      7.67932618	    -12.27027041	     -7.32621662	      6.18994664	      4.91275209	     -7.38922437	     27.37429516	      9.97666010	     42.93786702	    121.57942678	    102.56951167	     50.10549125	     21.04188176	     71.23682345	    118.67000551	     92.79301107
